<?xml version="1.0" standalone="no"?>
<!DOCTYPE svg PUBLIC "-//W3C//DTD SVG 20010904//EN"
 "http://www.w3.org/TR/2001/REC-SVG-20010904/DTD/svg10.dtd">
<svg version="1.0" xmlns="http://www.w3.org/2000/svg"
 width="700.000000pt" height="700.000000pt" viewBox="0 0 700.000000 700.000000"
 preserveAspectRatio="xMidYMid meet">
<metadata>
Created by potrace 1.14, written by Peter Selinger 2001-2017
</metadata>
<g transform="translate(0.000000,700.000000) scale(0.100000,-0.100000)"
fill="#000000" stroke="none">
<path d="M226 6150 c-1 -3 -2 -120 -2 -260 l1 -255 3276 -1 3275 -1 -1 261 0
261 -3273 0 c-1801 0 -3275 -2 -3276 -5z"/>
<path d="M286 5248 c30 -51 950 -1424 956 -1426 5 -2 8 -8 8 -12 0 -8 65 -108
88 -136 34 -40 33 -49 -27 -140 -32 -49 -154 -237 -271 -419 -117 -181 -247
-382 -288 -445 -179 -274 -515 -795 -518 -805 -5 -11 940 -16 948 -5 2 3 40
64 85 135 44 72 140 225 213 340 73 116 160 254 194 308 34 53 73 116 88 140
15 23 40 63 55 89 15 27 31 48 34 48 4 0 45 -59 90 -131 46 -72 89 -136 94
-142 6 -7 26 -37 45 -67 19 -30 37 -57 40 -60 4 -3 9 -12 13 -20 3 -8 100
-157 215 -330 l208 -315 476 0 476 -1 -27 41 c-14 22 -270 406 -569 853 l-543
813 45 72 c25 40 137 216 250 392 113 176 255 399 316 495 263 414 316 495
412 643 71 110 126 97 -419 97 l-478 0 -294 -492 c-162 -271 -299 -499 -306
-506 -9 -10 -20 0 -52 50 -75 118 -280 443 -333 528 -29 47 -72 114 -95 150
-23 36 -71 111 -106 167 l-64 103 -483 0 c-384 0 -482 -3 -476 -12z"/>
<path d="M3670 5256 c0 -2 75 -179 166 -393 355 -830 667 -1560 684 -1599 11
-22 28 -63 39 -91 11 -28 29 -70 40 -94 11 -24 143 -334 295 -689 l275 -645
52 0 53 0 52 120 c28 66 109 255 179 420 70 165 135 318 145 340 10 22 70 164
135 315 64 151 125 293 135 315 10 22 116 270 235 550 120 281 305 715 412
965 108 250 197 463 200 473 5 16 -18 17 -428 15 l-433 -3 -117 -280 c-65
-154 -124 -296 -132 -315 -8 -19 -57 -136 -109 -260 -52 -124 -146 -348 -208
-497 -63 -150 -116 -273 -120 -273 -3 0 -12 17 -19 38 -8 20 -22 55 -32 77
-10 22 -52 123 -94 225 -90 216 -151 363 -170 405 -13 28 -126 299 -298 713
l-71 172 -433 0 c-238 0 -433 -2 -433 -4z"/>
<path d="M226 1410 c-1 -3 -2 -120 -2 -260 l1 -255 3273 -1 c1799 0 3273 2
3273 5 5 19 4 511 -1 512 -17 4 -6542 3 -6544 -1z"/>
</g>
</svg>
