<svg id="Layer_1" data-name="Layer 1" xmlns="http://www.w3.org/2000/svg" xmlns:xlink="http://www.w3.org/1999/xlink" viewBox="0 0 180 180"><defs><style>.cls-1{fill:url(#linear-gradient);}</style><linearGradient id="linear-gradient" x1="90" y1="143.09" x2="90" y2="36.91" gradientUnits="userSpaceOnUse"><stop offset="0" stop-color="#5b5d60"/><stop offset="1" stop-color="#ec008c"/></linearGradient></defs><path class="cls-1" d="M150.39,88.67a27.83,27.83,0,0,0-9.09,1.52L130.42,64.12l.09-.11h-.14l-11.3-27.1H105.6v3h11.47L127.12,64H70.9L65.54,51.16H77.27v-3H52v3H62.29L68.2,65.33l-22,28.82a27.68,27.68,0,0,0-16.59-5.48,27.21,27.21,0,1,0,0,54.42,27.39,27.39,0,0,0,27.56-27.21H90.86l37.46-49,10.2,24.45a27.62,27.62,0,1,0,11.87-2.65ZM29.61,140.09A24.21,24.21,0,1,1,44.37,96.55L29.61,115.88H54.17A24.42,24.42,0,0,1,29.61,140.09ZM54,112.88H35.68l11-14.39A24,24,0,0,1,54,112.88Zm3,0a27,27,0,0,0-8.5-16.8l21-27.55L88,112.88Zm33.63-1.57L72.15,67h52.29Zm59.76,28.78a24.15,24.15,0,0,1-10.72-46L149,116.46l2.77-1.16L142.46,93a24.74,24.74,0,0,1,7.93-1.3,24.21,24.21,0,1,1,0,48.42Z"/></svg>