<svg xmlns="http://www.w3.org/2000/svg" viewBox="0 0 147 147"><defs><style>.cls-1{fill:none;}.cls-1,.cls-2{stroke:#5b5d60;stroke-miterlimit:10;stroke-width:3px;}.cls-2{fill:#fff;}</style></defs><g id="Layer_2" data-name="Layer 2"><g id="Layer_1-2" data-name="Layer 1"><rect class="cls-1" x="29.6" y="1.5" width="87.69" height="117"/><rect class="cls-1" x="40.56" y="10.5" width="65.77" height="108"/><line class="cls-1" x1="40.56" y1="28.5" x2="106.33" y2="28.5"/><line class="cls-1" x1="40.56" y1="46.5" x2="106.33" y2="46.5"/><line class="cls-1" x1="40.56" y1="64.5" x2="106.33" y2="64.5"/><line class="cls-1" x1="40.56" y1="82.5" x2="106.33" y2="82.5"/><line class="cls-1" x1="40.56" y1="100.5" x2="106.33" y2="100.5"/><rect class="cls-2" x="1.5" y="109.5" width="63" height="36"/><rect class="cls-2" x="82.5" y="109.5" width="63" height="36"/><line class="cls-1" x1="64.5" y1="136.5" x2="82.5" y2="136.5"/><line class="cls-1" x1="64.5" y1="145.5" x2="82.5" y2="145.5"/><rect class="cls-1" x="1.5" y="127.5" width="63" height="18"/><rect class="cls-1" x="82.5" y="127.5" width="63" height="18"/><line class="cls-1" x1="19.5" y1="127.5" x2="19.5" y2="145.5"/><line class="cls-1" x1="46.5" y1="127.5" x2="46.5" y2="145.5"/><line class="cls-1" x1="100.5" y1="127.5" x2="100.5" y2="145.5"/><line class="cls-1" x1="127.5" y1="127.5" x2="127.5" y2="145.5"/></g></g></svg>