<svg xmlns="http://www.w3.org/2000/svg" xmlns:xlink="http://www.w3.org/1999/xlink" viewBox="0 0 147 147"><defs><style>.cls-1{fill:url(#linear-gradient);}</style><linearGradient id="linear-gradient" x1="73.5" y1="147" x2="73.5" gradientUnits="userSpaceOnUse"><stop offset="0" stop-color="#5b5d60"/><stop offset="1" stop-color="#ec008c"/></linearGradient></defs><g id="Layer_2" data-name="Layer 2"><g id="Layer_1-2" data-name="Layer 1"><path class="cls-1" d="M118.79,108V0H28.1V108H0v39H147V108ZM31.1,3h84.69V108h-8V9H39.06v99h-8ZM81,117H66v-9H42.06v-6h62.77v6H81Zm0,9v9H66V120H81Zm23.83-99H42.06V12h62.77ZM42.06,30h62.77V45H42.06Zm0,18h62.77V63H42.06Zm0,18h62.77V81H42.06Zm0,18h62.77V99H42.06ZM3,129H18v15H3Zm18,0H45v15H21Zm42,15H48V129H63ZM3,126V111H63v15Zm63,18v-6H81v6Zm18-15H99v15H84Zm18,0h24v15H102Zm42,15H129V129h15ZM84,126V111h60v15Z"/></g></g></svg>