<svg id="Layer_1" data-name="Layer 1" xmlns="http://www.w3.org/2000/svg" xmlns:xlink="http://www.w3.org/1999/xlink" viewBox="0 0 180 180"><defs><style>.cls-1{fill:url(#linear-gradient);}</style><linearGradient id="linear-gradient" x1="90" y1="153" x2="90" y2="27" gradientUnits="userSpaceOnUse"><stop offset="0" stop-color="#5b5d60"/><stop offset="1" stop-color="#0db14b"/></linearGradient></defs><path class="cls-1" d="M114,63V27H102V63H78V27H66V63H58.5V94.5A31.52,31.52,0,0,0,81,124.69V153H99V124.69A31.52,31.52,0,0,0,121.5,94.5V63Zm-9-33h6V63h-6ZM69,30h6V63H69ZM96,150H84V125.42a31.32,31.32,0,0,0,12,0Zm22.5-55.5a28.55,28.55,0,0,1-19.5,27,30.15,30.15,0,0,1-3,.82,28.45,28.45,0,0,1-12,0,30.15,30.15,0,0,1-3-.82,28.55,28.55,0,0,1-19.5-27v-12h57Zm-57-15V66h57V79.5Z"/></svg>