<svg xmlns="http://www.w3.org/2000/svg" xmlns:xlink="http://www.w3.org/1999/xlink" viewBox="0 0 63 126"><defs><style>.cls-1{fill:url(#linear-gradient);}</style><linearGradient id="linear-gradient" x1="31.5" y1="126" x2="31.5" gradientUnits="userSpaceOnUse"><stop offset="0" stop-color="#5b5d60"/><stop offset="1" stop-color="#0db14b"/></linearGradient></defs><g id="Layer_2" data-name="Layer 2"><g id="Layer_1-2" data-name="Layer 1"><path class="cls-1" d="M55.5,36V0h-12V36h-24V0H7.5V36H0V67.5A31.52,31.52,0,0,0,22.5,97.69V126h18V97.69A31.52,31.52,0,0,0,63,67.5V36Zm-9-33h6V36h-6Zm-36,0h6V36h-6Zm27,120h-12V98.42a31.32,31.32,0,0,0,12,0ZM60,67.5a28.55,28.55,0,0,1-19.5,27,30.15,30.15,0,0,1-3,.82,28.44,28.44,0,0,1-12,0,30.15,30.15,0,0,1-3-.82A28.55,28.55,0,0,1,3,67.5v-12H60ZM3,52.5V39H60V52.5Z"/></g></g></svg>