<svg id="Layer_1" data-name="Layer 1" xmlns="http://www.w3.org/2000/svg" xmlns:xlink="http://www.w3.org/1999/xlink" viewBox="0 0 180 180"><defs><style>.cls-1{fill:url(#linear-gradient);}.cls-2{fill:url(#linear-gradient-2);}</style><linearGradient id="linear-gradient" x1="90" y1="153" x2="90" y2="27" gradientUnits="userSpaceOnUse"><stop offset="0" stop-color="#5b5d60"/><stop offset="1" stop-color="#00aeef"/></linearGradient><linearGradient id="linear-gradient-2" x1="94.52" y1="121.14" x2="94.52" y2="58.86" xlink:href="#linear-gradient"/></defs><path class="cls-1" d="M90,30A60,60,0,1,1,30,90,60.07,60.07,0,0,1,90,30m0-3a63,63,0,1,0,63,63A63,63,0,0,0,90,27Z"/><path class="cls-2" d="M97.42,61.86c11.85,0,17.24,8.78,17.24,16.93,0,9.81-7.25,16.93-17.24,16.93H83.52v22.42H74.37V61.86h23M83.52,88.64H96c5.2,0,9.12-4.41,9.12-10.27,0-5.52-3.83-9.54-9.12-9.54H83.52V88.64m13.9-29.78h-26v62.28H86.52V98.72h10.9c11.52,0,20.24-8.3,20.24-19.93,0-10.48-7.47-19.93-20.24-19.93ZM86.52,85.64V71.83H96c4,0,6.12,3.12,6.12,6.54,0,3.64-2.18,7.27-6.12,7.27Z"/></svg>