<svg xmlns="http://www.w3.org/2000/svg" xmlns:xlink="http://www.w3.org/1999/xlink" viewBox="0 0 126 126"><defs><style>.cls-1{fill:url(#linear-gradient);}.cls-2{fill:url(#linear-gradient-2);}</style><linearGradient id="linear-gradient" x1="63" y1="126" x2="63" gradientUnits="userSpaceOnUse"><stop offset="0" stop-color="#5b5d60"/><stop offset="1" stop-color="#00aeef"/></linearGradient><linearGradient id="linear-gradient-2" x1="67.52" y1="94.14" x2="67.52" y2="31.86" xlink:href="#linear-gradient"/></defs><g id="Layer_2" data-name="Layer 2"><g id="Layer_1-2" data-name="Layer 1"><path class="cls-1" d="M63,3A60,60,0,1,1,3,63,60.07,60.07,0,0,1,63,3m0-3a63,63,0,1,0,63,63A63,63,0,0,0,63,0Z"/><path class="cls-2" d="M70.42,34.86c11.85,0,17.24,8.78,17.24,16.93,0,9.81-7.25,16.93-17.24,16.93H56.52V91.14H47.37V34.86H70.42M56.52,61.64H69c5.2,0,9.12-4.41,9.12-10.27,0-5.52-3.83-9.54-9.12-9.54H56.52V61.64m13.9-29.78H44.37V94.14H59.52V71.72h10.9c11.52,0,20.24-8.3,20.24-19.93,0-10.48-7.47-19.93-20.24-19.93ZM59.52,58.64V44.83H69c4,0,6.12,3.12,6.12,6.54,0,3.64-2.18,7.27-6.12,7.27Z"/></g></g></svg>