<svg xmlns="http://www.w3.org/2000/svg" viewBox="0 0 142.5 129"><defs><style>.cls-1{fill:#fff;stroke:#5b5d60;stroke-miterlimit:10;stroke-width:3px;}</style></defs><g id="Layer_2" data-name="Layer 2"><g id="Layer_1-2" data-name="Layer 1"><circle class="cls-1" cx="37.5" cy="19.5" r="18"/><rect class="cls-1" x="1.5" y="19.5" width="72" height="108" rx="1"/><path class="cls-1" d="M126.6,127.5H101.4a1,1,0,0,1-1-.89l-8.78-79a1,1,0,0,1,1-1.11h42.76a1,1,0,0,1,1,1.11l-8.78,79A1,1,0,0,1,126.6,127.5Z"/><rect class="cls-1" x="87" y="37.5" width="54" height="9" rx="1"/><path class="cls-1" d="M112.19,10.5h3.62a1,1,0,0,1,1,1v26a0,0,0,0,1,0,0h-5.62a0,0,0,0,1,0,0v-26A1,1,0,0,1,112.19,10.5Z"/><rect class="cls-1" x="19.5" y="64.5" width="36" height="18"/></g></g></svg>