<svg xmlns="http://www.w3.org/2000/svg" xmlns:xlink="http://www.w3.org/1999/xlink" viewBox="0 0 142.5 129"><defs><style>.cls-1{fill:url(#linear-gradient);}</style><linearGradient id="linear-gradient" x1="71.25" y1="129" x2="71.25" gradientUnits="userSpaceOnUse"><stop offset="0" stop-color="#5b5d60"/><stop offset="1" stop-color="#00aeef"/></linearGradient></defs><g id="Layer_2" data-name="Layer 2"><g id="Layer_1-2" data-name="Layer 1"><path class="cls-1" d="M72.5,18H56.92a19.48,19.48,0,0,0-38.84,0H2.5A2.5,2.5,0,0,0,0,20.5v106A2.5,2.5,0,0,0,2.5,129h70a2.5,2.5,0,0,0,2.5-2.5V20.5A2.5,2.5,0,0,0,72.5,18ZM37.5,3A16.51,16.51,0,0,1,53.92,18H21.08A16.51,16.51,0,0,1,37.5,3ZM72,126H3V21H72Zm68-90H118.31V11.5a2.5,2.5,0,0,0-2.5-2.5h-3.62a2.5,2.5,0,0,0-2.5,2.5V36H88a2.5,2.5,0,0,0-2.5,2.5v7A2.5,2.5,0,0,0,88,48h2.16l8.75,78.77A2.5,2.5,0,0,0,101.4,129h25.2a2.5,2.5,0,0,0,2.49-2.22L137.84,48H140a2.5,2.5,0,0,0,2.5-2.5v-7A2.5,2.5,0,0,0,140,36ZM112.69,12h2.62V36h-2.62Zm13.47,114H101.84L93.18,48h41.64ZM139.5,45h-51V39h51ZM18,84H57V63H18Zm3-18H54V81H21Z"/></g></g></svg>