<svg xmlns="http://www.w3.org/2000/svg" xmlns:xlink="http://www.w3.org/1999/xlink" viewBox="0 0 136.5 136.5"><defs><style>.cls-1{fill:url(#linear-gradient);}</style><linearGradient id="linear-gradient" x1="68.25" y1="136.5" x2="68.25" gradientUnits="userSpaceOnUse"><stop offset="0" stop-color="#5b5d60"/><stop offset="1" stop-color="#7f3f98"/></linearGradient></defs><g id="Layer_2" data-name="Layer 2"><g id="Layer_1-2" data-name="Layer 1"><path class="cls-1" d="M27.62,25.5l-5-5-2.12,2.12,5,5V136.5h111V25.5Zm105.88,108H28.5V30.62l.38.38L31,28.88l-.38-.38H133.5ZM5.94,126H8.88l-4.44,7.69L0,126H2.94V27h3ZM126,5.94H27v-3h99V0l7.69,4.44L126,8.88Zm-115.94,2,4.24,4.24L12.18,14.3,7.94,10.06ZM112.35,114.47,104,106.12l2.12-2.12,8.35,8.35ZM45.57,47.69l-8.35-8.35,2.12-2.12,8.35,8.35ZM79,81.08l-8.35-8.35,2.12-2.12L81.08,79ZM62.27,64.39,53.92,56,56,53.92l8.35,8.35ZM95.66,97.78l-8.35-8.35,2.12-2.12,8.35,8.34Zm29.28,29.28-4.24-4.24,2.12-2.12,4.24,4.24Z"/></g></g></svg>