<svg xmlns="http://www.w3.org/2000/svg" viewBox="0 0 126 126"><defs><style>.cls-1{fill:#fff;}.cls-1,.cls-2{stroke:#5b5d60;stroke-miterlimit:10;stroke-width:3px;}.cls-2{fill:none;}</style></defs><g id="Layer_2" data-name="Layer 2"><g id="Layer_1-2" data-name="Layer 1"><rect class="cls-1" x="9" y="9" width="108" height="108" rx="1"/><line class="cls-2" x1="117" y1="27" x2="126" y2="27"/><line class="cls-2" x1="117" y1="99" x2="126" y2="99"/><line class="cls-2" x1="117" y1="63" x2="126" y2="63"/><line class="cls-2" x1="9" y1="27" y2="27"/><line class="cls-2" x1="9" y1="63" y2="63"/><line class="cls-2" x1="9" y1="99" y2="99"/><line class="cls-2" x1="27" x2="27" y2="9"/><line class="cls-2" x1="63" x2="63" y2="9"/><line class="cls-2" x1="99" x2="99" y2="9"/><line class="cls-2" x1="99" y1="126" x2="99" y2="117"/><line class="cls-2" x1="63" y1="126" x2="63" y2="117"/><line class="cls-2" x1="27" y1="126" x2="27" y2="117"/><rect class="cls-2" x="27" y="63" width="36" height="36" rx="1"/><polyline class="cls-2" points="63 81 99 81 99 45"/><circle class="cls-2" cx="99" cy="40.5" r="4.5"/><circle class="cls-2" cx="45" cy="40.5" r="4.5"/><circle class="cls-2" cx="72" cy="40.5" r="4.5"/><line class="cls-2" x1="45" y1="63" x2="45" y2="45"/><line class="cls-2" x1="27" y1="81" x2="63" y2="81"/><line class="cls-2" x1="45" y1="99" x2="45" y2="81"/><line class="cls-2" x1="72" y1="45" x2="72" y2="81"/></g></g></svg>