<svg xmlns="http://www.w3.org/2000/svg" xmlns:xlink="http://www.w3.org/1999/xlink" viewBox="0 0 126 126"><defs><style>.cls-1{fill:url(#linear-gradient);}</style><linearGradient id="linear-gradient" x1="63" y1="126" x2="63" gradientUnits="userSpaceOnUse"><stop offset="0" stop-color="#5b5d60"/><stop offset="1" stop-color="#0db14b"/></linearGradient></defs><g id="Layer_2" data-name="Layer 2"><g id="Layer_1-2" data-name="Layer 1"><path class="cls-1" d="M126,28.5v-3h-7.5V10A2.5,2.5,0,0,0,116,7.5H100.5V0h-3V7.5h-33V0h-3V7.5h-33V0h-3V7.5H10A2.5,2.5,0,0,0,7.5,10V25.5H0v3H7.5v33H0v3H7.5v33H0v3H7.5V116a2.5,2.5,0,0,0,2.5,2.5H25.5V126h3v-7.5h33V126h3v-7.5h33V126h3v-7.5H116a2.5,2.5,0,0,0,2.5-2.5V100.5H126v-3h-7.5v-33H126v-3h-7.5v-33Zm-10.5,87H10.5V10.5h105ZM28,100.5H62A2.5,2.5,0,0,0,64.5,98V82.5h36V46.3a6,6,0,1,0-3,0V79.5h-24V46.3a6,6,0,1,0-3,0V79.5h-6V64A2.5,2.5,0,0,0,62,61.5H46.5V46.3a6,6,0,1,0-3,0V61.5H28A2.5,2.5,0,0,0,25.5,64V98A2.5,2.5,0,0,0,28,100.5Zm68-60a3,3,0,1,1,3,3A3,3,0,0,1,96,40.5Zm-27,0a3,3,0,1,1,3,3A3,3,0,0,1,69,40.5Zm-27,0a3,3,0,1,1,3,3A3,3,0,0,1,42,40.5Zm-13.5,42h15v15h-15Zm18,15v-15h15v15Zm15-33v15h-33v-15Z"/></g></g></svg>