<svg xmlns="http://www.w3.org/2000/svg" width="428" height="131" viewBox="0 0 428 131">
  <g id="Group_51" data-name="Group 51" transform="translate(-14.999 0)">
    <path id="Union_1" data-name="Union 1" d="M-519,131H-947V0h428V131ZM-744.049,92.373l0,0,9.645,11.6a.427.427,0,0,0,.311.165h.1c.127,0,.166-.023.166-.165v-14.3c0-.267-.061-.332-.311-.332h-1c-.258,0-.332.074-.332.332v11.08l-9.668-11.536a.3.3,0,0,0-.27-.145h-.1c-.144,0-.186.022-.186.166v14.295c0,.248.084.332.332.332h.975c.248,0,.332-.084.332-.332V92.373Zm49.5,4.937h8.174v6.224c0,.258.07.332.311.332h1c.248,0,.332-.084.332-.332V89.676c0-.248-.084-.332-.332-.332h-1c-.242,0-.311.074-.311.332v6.183h-8.174V89.676c0-.258-.07-.332-.312-.332h-1c-.248,0-.332.084-.332.332v13.859c0,.248.084.332.332.332h1c.242,0,.312-.074.312-.332V97.312Zm-26.246-7.967c-.248,0-.332.084-.332.332v.831c0,.258.074.332.332.332h4.959v12.7c0,.261.071.332.331.332h1c.242,0,.311-.074.311-.332v-12.7h4.979c.242,0,.311-.074.311-.332v-.831c0-.253-.043-.332-.311-.332Zm-48.216,0c-.248,0-.332.084-.332.332v13.859c0,.248.084.332.332.332h9.232c.241,0,.311-.074.311-.332v-.768c0-.258-.07-.332-.311-.332H-767.7V97.25h7.552c.248,0,.332-.084.332-.332V96.15c0-.248-.084-.332-.332-.332H-767.7V90.776h7.925c.23,0,.311-.087.311-.332v-.768c0-.245-.081-.332-.311-.332Zm-23.527,0c-.248,0-.332.084-.332.332v13.859c0,.248.084.332.332.332h9.233c.241,0,.31-.074.31-.332v-.768c0-.258-.07-.332-.31-.332h-7.926V97.25h7.552c.248,0,.332-.084.332-.332V96.15c0-.248-.084-.332-.332-.332h-7.552V90.776h7.926c.229,0,.31-.087.31-.332v-.768c0-.245-.081-.332-.31-.332Zm-24.793,0c-.248,0-.331.084-.331.332v.831c0,.258.074.332.331.332h4.959v12.7c0,.261.071.332.332.332h1c.242,0,.311-.074.311-.332v-12.7h4.979c.242,0,.312-.074.312-.332v-.831c0-.249-.045-.332-.312-.332Zm-21.473,0c-.248,0-.332.084-.332.332v13.859c0,.248.084.332.332.332h1c.229,0,.31-.087.31-.332V97.25h7.718c.248,0,.332-.084.332-.332V96.15c0-.248-.084-.332-.332-.332h-7.718V90.776h7.9c.239,0,.332-.093.332-.332v-.768c0-.248-.084-.332-.332-.332Zm-16.2,0c-.248,0-.331.084-.331.332v13.859c0,.248.084.332.331.332h1c.242,0,.312-.074.312-.332V89.676c0-.258-.07-.332-.312-.332Zm-23.4,0c-.248,0-.332.084-.332.332v13.859c0,.248.084.332.332.332h1c.23,0,.311-.087.311-.332V97.25h7.718c.248,0,.331-.084.331-.332V96.15c0-.248-.084-.332-.331-.332H-877.1V90.776h7.9c.239,0,.332-.093.332-.332v-.768c0-.248-.084-.332-.332-.332Zm-34.594-10h0v1.07h261.995v-1.07H-913Zm147.656-19.182a10.958,10.958,0,0,0,3,7.771,11.584,11.584,0,0,0,8.508,3.226,11.159,11.159,0,0,0,11.389-10.885,9.7,9.7,0,0,0-2.153-6.522,13.37,13.37,0,0,0-6.656-3.913c-.385-.113-.778-.221-1.158-.324-2.465-.673-4.79-1.307-4.79-3.492a3.046,3.046,0,0,1,1.094-2.448,3.845,3.845,0,0,1,2.441-.807,3.423,3.423,0,0,1,2.6,1.024,3.588,3.588,0,0,1,.877,2.455h7.742a12.471,12.471,0,0,0-3.093-7.834c-1.994-2.1-4.8-3.163-8.353-3.163a11.656,11.656,0,0,0-8.1,3.212,10.556,10.556,0,0,0-3.346,7.673c0,6.055,3.522,8.551,8.81,10.435.338.117.692.234,1.033.346l.008,0c2.467.81,5.017,1.649,5.017,3.86,0,1.772-1.321,2.918-3.366,2.918a3.511,3.511,0,0,1-3.479-3.534ZM-812.8,36.376l14.869,34.788h1.01l14.869-34.788h-8.585l-6.789,16.215-6.789-16.215H-812.8Zm108-1.122a19.274,19.274,0,0,0-7.329,1.393,17.114,17.114,0,0,0-5.73,3.818,17.939,17.939,0,0,0-5.064,12.744,17.938,17.938,0,0,0,5.064,12.743,17.116,17.116,0,0,0,5.73,3.818,19.274,19.274,0,0,0,7.329,1.393A19.19,19.19,0,0,0-697.5,69.77a17.186,17.186,0,0,0,5.733-3.818,17.92,17.92,0,0,0,5.085-12.743,17.921,17.921,0,0,0-5.085-12.744,17.186,17.186,0,0,0-5.733-3.818A19.19,19.19,0,0,0-704.808,35.254ZM-736.9,36.376V70.042h8.248V36.376Zm-41.908,0V70.042h8.248V36.376h-8.247Zm-71.921,0h0V70.042h22.892v-7.07H-842.48V56.912h12.96V49.73h-12.96v-6.06h14.026V36.376h-22.275Zm-26.759,20.368H-864.3v13.3h8.192V36.376H-864.3V49.618h-13.185V36.376h-8.248V70.042h8.248v-13.3ZM-913,36.376h0v7.295h7.519V70.042h8.3V43.671h7.631V36.376H-913Zm240.287,13.691,0,0,13.127,19.971H-651V36.376h-8.192V56.351l-13.073-19.975h-8.7V70.041h8.249V50.067ZM-913,26h0v1.07h261.995V26H-913Zm208.193,43.48a15.883,15.883,0,0,1-11.538-4.706,16.44,16.44,0,0,1-4.509-11.565,16.615,16.615,0,0,1,4.509-11.622,15.809,15.809,0,0,1,11.538-4.763,15.807,15.807,0,0,1,11.516,4.763,16.6,16.6,0,0,1,4.531,11.622,16.42,16.42,0,0,1-4.531,11.565A15.881,15.881,0,0,1-704.808,69.48Zm0-28a13.074,13.074,0,0,0-4.912.909,10.938,10.938,0,0,0-3.75,2.493,11.764,11.764,0,0,0-3.233,8.325,12.02,12.02,0,0,0,3.233,8.409,11,11,0,0,0,3.75,2.55,12.773,12.773,0,0,0,4.912.935,12.687,12.687,0,0,0,4.888-.935,11.068,11.068,0,0,0,3.752-2.55,12,12,0,0,0,3.254-8.409,11.745,11.745,0,0,0-3.254-8.325,11.005,11.005,0,0,0-3.752-2.493A12.986,12.986,0,0,0-704.808,41.482Zm30.018,26.989h-4.1V37.947h5.331l15.43,23.454h1.01V37.947h4.04V68.469h-5.218l-15.655-23.734h-.841V68.47Zm-30.018-5.107a9.416,9.416,0,0,1-7.133-2.953,10.526,10.526,0,0,1-2.63-7.2,10.525,10.525,0,0,1,2.63-7.2,9.417,9.417,0,0,1,7.133-2.953,9.413,9.413,0,0,1,7.111,2.953,10.5,10.5,0,0,1,2.651,7.2,10.5,10.5,0,0,1-2.651,7.2A9.413,9.413,0,0,1-704.808,63.365Z" transform="translate(962 0)" fill="#fff"/>
    <g id="Group_6" data-name="Group 6" transform="translate(49.002 26)">
      <g id="Group_5" data-name="Group 5" transform="translate(34.262 63.075)">
        <path id="Path_21" data-name="Path 21" d="M94.156,174.407c0-.249.083-.332.332-.332H103.7c.249,0,.332.083.332.332v.768c0,.249-.1.332-.332.332h-7.9v5.042h7.718c.249,0,.332.083.332.332v.768c0,.249-.083.332-.332.332H95.795v6.286c0,.249-.083.332-.311.332h-1c-.249,0-.332-.083-.332-.332Z" transform="translate(-94.156 -173.806)" fill="#21191d"/>
        <path id="Path_22" data-name="Path 22" d="M158.8,188.6c-.249,0-.332-.083-.332-.332V174.407c0-.249.083-.332.332-.332h1c.249,0,.312.083.312.332v13.859c0,.249-.063.332-.312.332Z" transform="translate(-135.067 -173.806)" fill="#21191d"/>
        <path id="Path_23" data-name="Path 23" d="M203,174.407c0-.249.083-.332.332-.332h9.212c.249,0,.332.083.332.332v.768c0,.249-.1.332-.332.332h-7.9v5.042h7.718c.249,0,.332.083.332.332v.768c0,.249-.083.332-.332.332h-7.718v6.286c0,.249-.083.332-.311.332h-1c-.249,0-.332-.083-.332-.332Z" transform="translate(-163.39 -173.806)" fill="#21191d"/>
        <path id="Path_24" data-name="Path 24" d="M267.3,175.569h-4.959c-.269,0-.332-.084-.332-.332v-.83c0-.249.083-.332.332-.332h11.577c.27,0,.311.083.311.332v.83c0,.249-.062.332-.311.332h-4.979v12.7c0,.249-.062.332-.311.332h-1c-.27,0-.332-.083-.332-.332Z" transform="translate(-200.928 -173.806)" fill="#21191d"/>
        <path id="Path_25" data-name="Path 25" d="M330.14,174.407c0-.249.083-.332.332-.332H339.7c.228,0,.311.083.311.332v.768c0,.249-.083.332-.311.332h-7.926v5.042h7.552c.249,0,.332.083.332.332v.768c0,.249-.083.332-.332.332h-7.552v5.186H339.7c.249,0,.311.083.311.332v.768c0,.249-.062.332-.311.332h-9.233c-.249,0-.332-.083-.332-.332Z" transform="translate(-244.268 -173.806)" fill="#21191d"/>
        <path id="Path_26" data-name="Path 26" d="M394.794,174.407c0-.249.083-.332.332-.332h9.233c.228,0,.311.083.311.332v.768c0,.249-.083.332-.311.332h-7.925v5.042h7.552c.249,0,.332.083.332.332v.768c0,.249-.083.332-.332.332h-7.552v5.186h7.925c.249,0,.311.083.311.332v.768c0,.249-.063.332-.311.332h-9.233c-.249,0-.332-.083-.332-.332Z" transform="translate(-285.395 -173.806)" fill="#21191d"/>
        <path id="Path_27" data-name="Path 27" d="M459.791,173.5c0-.144.042-.166.187-.166h.1a.3.3,0,0,1,.27.145l9.668,11.536v-11.08c0-.269.083-.332.332-.332h1c.249,0,.312.063.312.332v14.3c0,.145-.042.165-.166.165h-.1a.423.423,0,0,1-.311-.165l-9.647-11.6V187.8c0,.249-.083.332-.332.332h-.975c-.249,0-.332-.083-.332-.332Z" transform="translate(-326.74 -173.335)" fill="#21191d"/>
        <path id="Path_28" data-name="Path 28" d="M532.586,175.569h-4.959c-.269,0-.332-.084-.332-.332v-.83c0-.249.083-.332.332-.332H539.2c.27,0,.311.083.311.332v.83c0,.249-.062.332-.311.332h-4.979v12.7c0,.249-.062.332-.311.332h-1c-.27,0-.332-.083-.332-.332Z" transform="translate(-369.681 -173.806)" fill="#21191d"/>
        <path id="Path_29" data-name="Path 29" d="M595.827,174.407c0-.249.083-.332.332-.332h1c.249,0,.312.083.312.332v6.183h8.174v-6.183c0-.249.062-.332.312-.332h1c.249,0,.332.083.332.332v13.859c0,.249-.083.332-.332.332h-1c-.249,0-.312-.083-.312-.332v-6.224h-8.174v6.224c0,.249-.063.332-.312.332h-1c-.249,0-.332-.083-.332-.332Z" transform="translate(-413.275 -173.806)" fill="#21191d"/>
      </g>
      <rect id="Rectangle_4" data-name="Rectangle 4" width="261.994" height="1.07" transform="translate(0 53.349)" fill="#21191d"/>
      <rect id="Rectangle_5" data-name="Rectangle 5" width="261.994" height="1.07" fill="#21191d"/>
      <path id="Path_30" data-name="Path 30" d="M7.518,35.809H0V28.515H23.453v7.294H15.822V62.18h-8.3Z" transform="translate(0 -18.139)" fill="#21191d"/>
      <path id="Path_31" data-name="Path 31" d="M74.926,28.515h8.248V41.757H96.359V28.515h8.192V62.18H96.359v-13.3H83.174v13.3H74.926Z" transform="translate(-47.661 -18.139)" fill="#21191d"/>
      <path id="Path_32" data-name="Path 32" d="M171.129,28.515H193.4v7.294H179.377v6.06h12.961v7.182H179.377V55.11h14.644v7.07H171.129Z" transform="translate(-108.857 -18.139)" fill="#21191d"/>
      <path id="Path_33" data-name="Path 33" d="M275.346,28.515h8.585l6.788,16.215,6.789-16.215h8.585L291.224,63.3h-1.009Z" transform="translate(-175.151 -18.139)" fill="#21191d"/>
      <path id="Path_34" data-name="Path 34" d="M368.774,28.515h8.248V62.18h-8.248Z" transform="translate(-234.581 -18.139)" fill="#21191d"/>
      <path id="Path_35" data-name="Path 35" d="M413.8,50.344a3.508,3.508,0,0,0,3.478,3.534c2.076,0,3.366-1.179,3.366-2.918,0-2.525-3.31-3.254-6.06-4.208-5.667-2.02-8.809-4.657-8.809-10.436,0-5.948,5.106-10.885,11.447-10.885,7.462,0,11,4.769,11.446,11h-7.742a3.512,3.512,0,0,0-7.014-.225c0,2.525,3.086,2.973,5.948,3.816,6,1.8,8.809,5.162,8.809,10.436a11.156,11.156,0,0,1-11.39,10.885c-7.35,0-11.5-4.938-11.5-11Z" transform="translate(-258.117 -16.178)" fill="#21191d"/>
      <path id="Path_36" data-name="Path 36" d="M483.94,28.515h8.248V62.18H483.94Z" transform="translate(-307.84 -18.139)" fill="#21191d"/>
    </g>
  </g>
</svg>
